<?xml version="1.0" encoding="utf-8"?>
<!-- Generator: Adobe Illustrator 22.1.0, SVG Export Plug-In . SVG Version: 6.00 Build 0)  -->
<svg version="1.1" id="Layer_1" xmlns="http://www.w3.org/2000/svg" xmlns:xlink="http://www.w3.org/1999/xlink" x="0px" y="0px"
	 viewBox="0 0 111.1 110.7" style="enable-background:new 0 0 111.1 110.7;" xml:space="preserve">
<style type="text/css">
	.st0{fill:#FFFFFF;}
	.st1{fill:#FEFDFD;}
</style>
<path class="st0" d="M55.7,0.4C25.5,0.4,1,24.9,1,55.2C1,85.4,25.5,110,55.7,110c30.3,0,54.8-24.5,54.8-54.8
	C110.5,24.9,86,0.4,55.7,0.4z M87.3,79.1c-0.1,4.1-3.6,7.3-8,7.3c-15.7,0.1-31.4,0.1-47,0c-4.7,0-7.9-3.4-8-8.2
	c-0.1-2.3,0.2-4.7-0.1-7c-0.5-3.5,1.1-5.6,3.8-7.7C40.2,54.3,53.3,46.4,68.8,44c6-0.9,12.1-0.9,18.5-1.3
	C87.3,55.5,87.4,67.3,87.3,79.1z M87.2,37.7c-22.5,0-43.1,6.9-63,18.4c0-2.4,0-4.2,0-6.1c0-5.1,0.2-10.3-0.1-15.4
	c-0.3-5.2,1.5-8.8,6.4-10.7c16.8,0,33.7,0,50.5,0C87.1,27.3,87.8,28.7,87.2,37.7z"/>
<path class="st1" d="M-373.5-196.3c-0.3-0.3-0.7-0.7-1-1C-373.6-197.5-373.3-197.1-373.5-196.3z"/>
<path class="st1" d="M-790.5,218.7c0.3,0.3,0.7,0.7,1,1C-790.4,219.9-790.7,219.6-790.5,218.7z"/>
<path class="st1" d="M-374.5,219.7c0.3-0.3,0.7-0.7,1-1C-373.3,219.6-373.6,219.9-374.5,219.7z"/>
</svg>
