<?xml version="1.0" encoding="utf-8"?>
<!-- Generator: Adobe Illustrator 24.0.2, SVG Export Plug-In . SVG Version: 6.00 Build 0)  -->
<svg version="1.1" id="Layer_1" xmlns="http://www.w3.org/2000/svg" xmlns:xlink="http://www.w3.org/1999/xlink" x="0px" y="0px"
	 viewBox="0 0 111.1 110.7" style="enable-background:new 0 0 111.1 110.7;" xml:space="preserve">
<style type="text/css">
	.st0{fill:#FEFDFD;}
	.st1{fill:#FFFFFF;}
</style>
<path class="st0" d="M-373.5-196.3c-0.3-0.3-0.7-0.7-1-1C-373.6-197.5-373.3-197.1-373.5-196.3z"/>
<path class="st0" d="M-790.5,218.7c0.3,0.3,0.7,0.7,1,1C-790.4,219.9-790.7,219.6-790.5,218.7z"/>
<path class="st0" d="M-374.5,219.7c0.3-0.3,0.7-0.7,1-1C-373.3,219.6-373.6,219.9-374.5,219.7z"/>
<path class="st1" d="M56.3,1.6C26.6,1.4,2.2,25.6,2.1,55.3c-0.2,29.7,24,54.1,53.8,54.2c29.6,0.1,54-24,54.1-53.6
	C110.2,26.2,86,1.7,56.3,1.6z M80.5,88.4c-7.2,3.3-14.4,3.3-21.9,1.1c-2.5-0.7-5-1.3-7.5-1.9c-5.8-1.4-10.9,0.5-15.8,3.8
	c-1.7-3.8-3.3-7.6-5-11.3c-0.6-1.2,0.4-1.5,1-2c4.5-3.5,7.7-7.7,8.5-13.5c0.1-0.7,0.1-1.4,0.1-2.1c0-1-0.4-1.4-1.4-1.4
	c-2.2,0.1-4.5,0-6.7,0c-1.3,0.1-1.8-0.2-1.7-1.6c0.1-2.7,0.1-5.5,0-8.2c0-1.1,0.3-1.6,1.5-1.5c1.4,0.1,2.7,0,4.1,0
	c1.2,0.1,1.4-0.3,1.1-1.5c-1.2-4.3-2-8.8-0.8-13.3c2.2-8.5,8.1-13.2,16.5-14.8c5.5-1.1,10.9-0.7,16,1.7c6.6,3,9.5,8.7,10.5,15.5
	c0.1,0.9-0.1,1.3-1.1,1.4c-3.6,0.5-7.1,1.1-10.6,1.7c-1.1,0.2-1.6-0.2-1.8-1.4c-0.4-2.1-1.1-4.2-2.8-5.7c-1.5-1.3-3.2-2.5-5.4-1.6
	c-1.1,0.4-2.3-0.4-3.5,0.2c-2.9,1.5-4.9,4.7-4.6,8.2c0.3,2.9,0.9,5.7,1.7,8.4c0.3,1.1,0.9,1.4,2,1.4c3.8-0.1,7.6,0,11.4-0.1
	c1.4,0,1.7,0.4,1.7,1.7c-0.1,2.7-0.1,5.3,0,8c0.1,1.4-0.4,1.7-1.7,1.7c-3-0.1-6,0-9.1,0c-0.7,0-1.4-0.1-1.4,1
	c0.1,4.5-1.5,8.4-4.2,12c-0.9,1.2-0.4,1.8,0.9,1.7c4.1-0.4,8,0.7,11.9,1.7c4.5,1.2,8.7,0.5,12.8-1.5c1.2-0.6,1.7-0.3,2.2,0.9
	c1.3,3,2.6,6.1,4.1,9C82.2,87.3,81.7,87.8,80.5,88.4z"/>
</svg>
